<?xml version="1.0" standalone="no"?>
<!DOCTYPE svg PUBLIC "-//W3C//DTD SVG 20010904//EN"
 "http://www.w3.org/TR/2001/REC-SVG-20010904/DTD/svg10.dtd">
<svg version="1.0" xmlns="http://www.w3.org/2000/svg"
 width="192.000000pt" height="192.000000pt" viewBox="0 0 192.000000 192.000000"
 preserveAspectRatio="xMidYMid meet">
<metadata>
Created by potrace 1.14, written by Peter Selinger 2001-2017
</metadata>
<g transform="translate(0.000000,192.000000) scale(0.100000,-0.100000)"
fill="#000000" stroke="none">
<path d="M812 1908 c-97 -13 -252 -69 -344 -124 -112 -66 -266 -220 -332 -332
-104 -175 -151 -394 -128 -596 14 -131 63 -279 128 -388 66 -112 220 -266 332
-332 175 -104 394 -151 596 -128 226 25 407 113 571 277 119 119 183 220 232
367 89 266 59 561 -83 800 -66 112 -220 266 -332 332 -187 111 -420 156 -640
124z m618 -943 l0 -635 -85 0 -85 0 0 56 0 56 -42 -36 c-71 -61 -135 -80 -268
-80 -96 0 -124 3 -170 22 -111 44 -208 141 -252 252 -19 47 -23 74 -23 185 0
149 15 201 83 290 83 109 190 164 338 172 129 8 228 -23 307 -95 l27 -26 0
237 0 237 85 0 85 0 0 -635z"/>
<path d="M878 1087 c-131 -37 -208 -149 -208 -302 0 -161 76 -264 222 -301
140 -36 280 30 340 161 32 71 32 209 0 280 -61 133 -212 202 -354 162z"/>
</g>
</svg>
